<svg aria-hidden="true" style="position: absolute; width: 0; height: 0; overflow: hidden;" version="1.1" xmlns="http://www.w3.org/2000/svg" xmlns:xlink="http://www.w3.org/1999/xlink">
<defs>
<symbol id="icon-arrow-left" viewBox="0 0 32 32">
<path stroke-linejoin="round" stroke-linecap="round" stroke-miterlimit="4" stroke-width="4" d="M29.989 15.594l-27.989 0.801"></path>
<path stroke-linejoin="round" stroke-linecap="round" stroke-miterlimit="4" stroke-width="4" d="M16.395 29.989l-14.395-13.594 13.594-14.395"></path>
</symbol>
<symbol id="icon-arrow" viewBox="0 0 32 32">
<path stroke-linejoin="round" stroke-linecap="round" stroke-miterlimit="4" stroke-width="4" d="M2 16h28"></path>
<path stroke-linejoin="round" stroke-linecap="round" stroke-miterlimit="4" stroke-width="4" d="M16 2l14 14-14 14"></path>
</symbol>
<symbol id="icon-instagram" viewBox="0 0 32 32">
<path d="M21 16c0 1.326-0.527 2.598-1.465 3.535s-2.209 1.465-3.535 1.465-2.598-0.527-3.536-1.465c-0.938-0.938-1.464-2.209-1.464-3.535 0-0.285 0.030-0.563 0.082-0.833h-1.748v6.662c0 0.463 0.375 0.838 0.838 0.838h11.658c0.222-0 0.435-0.089 0.592-0.246s0.245-0.37 0.245-0.592v-6.662h-1.748c0.052 0.27 0.082 0.548 0.082 0.833zM16 19.333c0.438-0 0.871-0.086 1.276-0.254s0.772-0.413 1.081-0.723c0.309-0.31 0.555-0.677 0.723-1.082s0.254-0.838 0.253-1.276c-0-0.438-0.086-0.871-0.254-1.276s-0.413-0.772-0.723-1.082c-0.31-0.31-0.677-0.555-1.082-0.723s-0.838-0.254-1.276-0.253c-0.884 0-1.732 0.352-2.357 0.977s-0.976 1.474-0.976 2.358c0 0.884 0.352 1.732 0.977 2.357s1.474 0.976 2.358 0.976zM20 12.5h1.998c0.133 0 0.26-0.053 0.354-0.146s0.147-0.221 0.147-0.354v-1.998c0-0.133-0.053-0.261-0.147-0.355s-0.222-0.147-0.355-0.147h-1.998c-0.133 0-0.261 0.053-0.355 0.147s-0.147 0.222-0.147 0.355v1.998c0.002 0.275 0.227 0.5 0.502 0.5zM16 0c-4.243 0-8.313 1.686-11.314 4.686s-4.686 7.070-4.686 11.314c0 4.243 1.686 8.313 4.686 11.314s7.070 4.686 11.314 4.686c2.101 0 4.182-0.414 6.123-1.218s3.705-1.983 5.191-3.468c1.486-1.486 2.664-3.25 3.468-5.191s1.218-4.022 1.218-6.123-0.414-4.182-1.218-6.123c-0.804-1.941-1.983-3.705-3.468-5.191s-3.25-2.664-5.191-3.468c-1.941-0.804-4.022-1.218-6.123-1.218zM24.333 22.482c0 1.018-0.833 1.852-1.852 1.852h-12.963c-1.018 0-1.852-0.833-1.852-1.852v-12.963c0-1.018 0.833-1.852 1.852-1.852h12.963c1.018 0 1.852 0.833 1.852 1.852v12.963z"></path>
</symbol>
<symbol id="icon-linkedin" viewBox="0 0 32 32">
<path d="M16 0c-8.837 0-16 7.163-16 16s7.163 16 16 16c8.837 0 16-7.163 16-16s-7.163-16-16-16zM12.083 22.632h-3.24v-10.427h3.24v10.427zM10.443 10.925c-1.023 0-1.685-0.725-1.685-1.622 0-0.915 0.682-1.618 1.727-1.618s1.685 0.703 1.705 1.618c0 0.897-0.66 1.622-1.747 1.622zM23.917 22.632h-3.24v-5.778c0-1.345-0.47-2.258-1.642-2.258-0.895 0-1.427 0.618-1.662 1.213-0.087 0.212-0.108 0.512-0.108 0.81v6.012h-3.242v-7.1c0-1.302-0.042-2.39-0.085-3.327h2.815l0.148 1.448h0.065c0.427-0.68 1.472-1.683 3.22-1.683 2.132 0 3.73 1.428 3.73 4.498v6.165z"></path>
</symbol>
<symbol id="icon-play" viewBox="0 0 29 32">
<path d="M26 13.063c1.778 1.026 1.778 3.592 0 4.619l-22 12.702c-1.778 1.026-4-0.257-4-2.309v-25.403c0-2.053 2.222-3.336 4-2.309l22 12.702z"></path>
</symbol>
<symbol id="icon-scipe" viewBox="0 0 32 32">
<path d="M19.607 15.753c-0.436-0.281-0.907-0.503-1.402-0.658-0.595-0.193-1.2-0.356-1.812-0.488-0.379-0.087-0.757-0.183-1.132-0.287-0.229-0.064-0.45-0.153-0.66-0.263-0.188-0.091-0.354-0.221-0.488-0.382-0.11-0.14-0.168-0.314-0.163-0.492 0-0.313 0.167-0.577 0.508-0.807 0.353-0.238 0.832-0.358 1.418-0.358 0.633 0 1.093 0.107 1.368 0.322 0.283 0.222 0.53 0.537 0.733 0.937 0.177 0.313 0.335 0.53 0.49 0.667 0.165 0.15 0.402 0.228 0.705 0.228 0.335 0 0.617-0.12 0.842-0.362 0.214-0.217 0.335-0.509 0.337-0.813 0-0.313-0.088-0.638-0.257-0.96-0.2-0.358-0.47-0.672-0.795-0.922-0.404-0.312-0.862-0.547-1.352-0.693-0.62-0.185-1.265-0.272-1.912-0.26-0.917 0-1.725 0.13-2.405 0.39-0.688 0.263-1.223 0.647-1.59 1.138-0.369 0.491-0.564 1.091-0.557 1.705 0 0.667 0.178 1.233 0.53 1.687 0.345 0.447 0.82 0.803 1.407 1.062 0.577 0.25 1.297 0.472 2.148 0.66 0.623 0.133 1.13 0.263 1.502 0.383 0.357 0.113 0.652 0.28 0.875 0.495 0.106 0.104 0.189 0.229 0.243 0.367s0.079 0.286 0.072 0.434c0 0.42-0.198 0.762-0.605 1.052-0.418 0.293-0.973 0.44-1.65 0.44-0.493 0-0.892-0.072-1.19-0.218-0.27-0.123-0.505-0.309-0.687-0.543-0.189-0.268-0.347-0.556-0.47-0.86-0.104-0.274-0.268-0.522-0.482-0.723-0.199-0.173-0.456-0.265-0.72-0.257-0.157-0.005-0.314 0.021-0.461 0.077s-0.282 0.14-0.396 0.248c-0.109 0.102-0.196 0.226-0.255 0.363s-0.088 0.285-0.087 0.435c0 0.492 0.177 1.007 0.525 1.52 0.345 0.515 0.798 0.928 1.35 1.233 0.77 0.42 1.757 0.632 2.933 0.632 0.98 0 1.84-0.157 2.56-0.462 0.725-0.31 1.285-0.748 1.663-1.298 0.38-0.553 0.58-1.21 0.573-1.882 0-0.58-0.112-1.080-0.333-1.485-0.223-0.404-0.54-0.747-0.925-1.002zM16 0c-8.837 0-16 7.163-16 16s7.163 16 16 16c8.837 0 16-7.163 16-16s-7.163-16-16-16zM19.835 24.958c-0.812 0-1.577-0.208-2.247-0.58-0.494 0.096-0.997 0.144-1.5 0.143-4.522 0-8.19-3.777-8.19-8.428 0-0.583 0.058-1.15 0.167-1.697-0.43-0.751-0.655-1.603-0.653-2.468 0-2.698 2.127-4.89 4.752-4.89 0.928 0 1.793 0.277 2.527 0.752 0.453-0.082 0.923-0.123 1.398-0.123 4.525 0 8.192 3.773 8.192 8.428 0 0.618-0.065 1.223-0.188 1.807 0.315 0.655 0.493 1.39 0.493 2.172-0.002 2.697-2.127 4.885-4.75 4.885z"></path>
</symbol>
<symbol id="icon-twiter" viewBox="0 0 32 32">
<path d="M16 0c-8.836 0-16 7.164-16 16s7.164 16 16 16c8.836 0 16-7.164 16-16s-7.164-16-16-16zM23.689 12.061c0.011 0.168 0.011 0.343 0.011 0.514 0 5.243-3.993 11.282-11.289 11.282-2.25 0-4.336-0.654-6.093-1.779 0.321 0.036 0.629 0.050 0.957 0.050 1.857 0 3.564-0.628 4.925-1.693-1.743-0.036-3.207-1.179-3.707-2.75 0.611 0.089 1.161 0.089 1.789-0.071-0.897-0.182-1.704-0.67-2.283-1.379s-0.894-1.598-0.892-2.514v-0.050c0.525 0.296 1.143 0.479 1.789 0.504-0.543-0.362-0.989-0.853-1.297-1.428s-0.47-1.219-0.47-1.872c0-0.739 0.193-1.414 0.539-2 0.996 1.226 2.239 2.229 3.648 2.943s2.953 1.124 4.53 1.203c-0.561-2.696 1.454-4.879 3.875-4.879 1.143 0 2.171 0.479 2.896 1.25 0.897-0.168 1.754-0.504 2.518-0.954-0.296 0.918-0.918 1.693-1.743 2.182 0.8-0.086 1.571-0.307 2.286-0.618-0.539 0.793-1.214 1.496-1.989 2.057z"></path>
</symbol>
<symbol id="icon-Vector" viewBox="0 0 34 32">
<path d="M30.171 6.737h-5.029v-3.368c0-1.858-1.504-3.368-3.352-3.368h-10.057c-1.849 0-3.352 1.511-3.352 3.368v3.368h-5.029c-1.849 0-3.352 1.511-3.352 3.368v5.053h33.524v-5.053c0-1.858-1.504-3.368-3.352-3.368zM11.733 3.368h10.057v3.368h-10.057v-3.368zM20.114 20.211h-6.705v-3.369h-13.41v11.79c0 1.858 1.504 3.368 3.352 3.368h26.819c1.849 0 3.352-1.511 3.352-3.368v-11.79h-13.41v3.369z"></path>
</symbol>
<symbol id="icon-Vector1" viewBox="0 0 32 32">
<path d="M28.444 32c1.961 0 3.556-1.595 3.556-3.556v-24.889c0-1.961-1.595-3.556-3.556-3.556h-24.889c-1.961 0-3.556 1.595-3.556 3.556v24.889c0 1.961 1.595 3.556 3.556 3.556h24.889zM11.65 11.836l7.111 3.556 2.761-5.52 3.18 1.591-4.35 8.702-7.111-3.556-2.761 5.52-3.18-1.591 4.35-8.702z"></path>
</symbol>
<symbol id="icon-vector2" viewBox="0 0 26 32">
<path d="M25.6 6.4c0-3.469-5.861-6.4-12.8-6.4s-12.8 2.931-12.8 6.4v3.2c0 3.469 5.861 6.4 12.8 6.4s12.8-2.931 12.8-6.4v-3.2zM12.8 27.2c-6.939 0-12.8-2.931-12.8-6.4v4.8c0 3.469 5.861 6.4 12.8 6.4s12.8-2.931 12.8-6.4v-4.8c0 3.469-5.861 6.4-12.8 6.4z"></path>
<path d="M25.6 12.8c0 3.469-5.861 6.4-12.8 6.4s-12.8-2.931-12.8-6.4v4.8c0 3.469 5.861 6.4 12.8 6.4s12.8-2.931 12.8-6.4v-4.8z"></path>
</symbol>
<symbol id="icon-vector3" viewBox="0 0 32 32">
<path d="M6.737 32h-5.053c-0.931 0-1.684-0.754-1.684-1.684v-13.474c0-0.93 0.753-1.684 1.684-1.684h5.053c0.931 0 1.684 0.754 1.684 1.684v13.474c0 0.93-0.753 1.684-1.684 1.684zM18.526 32h-5.053c-0.931 0-1.684-0.754-1.684-1.684v-28.632c0-0.93 0.753-1.684 1.684-1.684h5.053c0.931 0 1.684 0.755 1.684 1.684v28.632c0 0.93-0.753 1.684-1.684 1.684zM30.316 32h-5.053c-0.931 0-1.684-0.754-1.684-1.684v-18.526c0-0.93 0.753-1.684 1.684-1.684h5.053c0.931 0 1.684 0.755 1.684 1.684v18.526c0 0.93-0.753 1.684-1.684 1.684z"></path>
</symbol>
<symbol id="icon-vector4" viewBox="0 0 41 32">
<path d="M34.134 0c1.697 0 3.325 0.675 4.525 1.875s1.875 2.828 1.875 4.525v19.2c0 1.697-0.675 3.325-1.875 4.525s-2.828 1.875-4.525 1.875h-27.734c-1.697 0-3.325-0.675-4.525-1.875s-1.875-2.828-1.875-4.525v-19.2c0-1.697 0.675-3.325 1.875-4.525s2.828-1.875 4.525-1.875h27.734zM2.134 25.6c0 1.132 0.449 2.217 1.249 3.017s1.886 1.249 3.018 1.249h27.734c1.131-0 2.216-0.449 3.016-1.249s1.25-1.886 1.25-3.017v-10.666h-36.266v10.666zM14.934 25.6h-8.534v-2.134h8.534v2.134zM25.6 25.6h-6.4v-2.134h6.4v2.134zM2.134 12.8h36.266v-2.134h-36.266v2.134zM6.4 2.134c-1.132 0-2.217 0.449-3.018 1.249s-1.249 1.886-1.249 3.018v2.134h36.266v-2.134c0-1.132-0.45-2.217-1.25-3.018s-1.885-1.249-3.016-1.249h-27.734z"></path>
<path stroke-linejoin="miter" stroke-linecap="butt" stroke-miterlimit="4" stroke-width="1.28" d="M34.134 0c1.697 0 3.325 0.675 4.525 1.875s1.875 2.828 1.875 4.525v19.2c0 1.697-0.675 3.325-1.875 4.525s-2.828 1.875-4.525 1.875h-27.734c-1.697 0-3.325-0.675-4.525-1.875s-1.875-2.828-1.875-4.525v-19.2c0-1.697 0.675-3.325 1.875-4.525s2.828-1.875 4.525-1.875h27.734zM2.134 25.6c0 1.132 0.449 2.217 1.249 3.017s1.886 1.249 3.018 1.249h27.734c1.131-0 2.216-0.449 3.016-1.249s1.25-1.886 1.25-3.017v-10.666h-36.266v10.666zM14.934 25.6h-8.534v-2.134h8.534v2.134zM25.6 25.6h-6.4v-2.134h6.4v2.134zM2.134 12.8h36.266v-2.134h-36.266v2.134zM6.4 2.134c-1.132 0-2.217 0.449-3.018 1.249s-1.249 1.886-1.249 3.018v2.134h36.266v-2.134c0-1.132-0.45-2.217-1.25-3.018s-1.885-1.249-3.016-1.249h-27.734z"></path>
</symbol>
<symbol id="icon-vector5" viewBox="0 0 18 32">
<path d="M16.762 7.619v16c0 4.632-3.749 8.381-8.381 8.381s-8.381-3.749-8.381-8.381v-17.524c0-3.368 2.728-6.095 6.095-6.095s6.095 2.728 6.095 6.095v16c0 1.010-0.401 1.979-1.116 2.694s-1.683 1.116-2.694 1.116c-1.010 0-1.979-0.401-2.694-1.116s-1.116-1.683-1.116-2.694v-14.476h1.524v14.476c0 0.606 0.241 1.188 0.669 1.616s1.010 0.669 1.616 0.669c0.606 0 1.188-0.241 1.616-0.669s0.669-1.010 0.669-1.616v-16c0-1.212-0.482-2.375-1.339-3.232s-2.020-1.339-3.232-1.339c-1.212 0-2.375 0.482-3.232 1.339s-1.339 2.020-1.339 3.232v17.524c0 1.819 0.722 3.563 2.008 4.849s3.030 2.008 4.849 2.008 3.563-0.722 4.849-2.008c1.286-1.286 2.008-3.030 2.008-4.849v-16h1.524z"></path>
</symbol>
<symbol id="icon-vector6" viewBox="0 0 32 32">
<path d="M16.842 0h1.684c3.573 0 7.001 1.42 9.527 3.946s3.946 5.954 3.946 9.527v1.684h-15.158v-15.158zM18.526 13.474h11.79c0-3.127-1.242-6.125-3.453-8.336s-5.21-3.453-8.336-3.453v11.79zM13.474 18.526h13.474c0 2.665-0.79 5.27-2.271 7.486s-3.585 3.943-6.047 4.963c-2.462 1.020-5.171 1.287-7.785 0.767s-5.014-1.803-6.899-3.687c-1.884-1.884-3.168-4.285-3.687-6.899s-0.253-5.323 0.767-7.785c1.020-2.462 2.747-4.566 4.962-6.047s4.821-2.271 7.486-2.271v13.474zM11.789 20.211v-13.356c-2.946 0.432-5.619 1.961-7.484 4.282s-2.782 5.261-2.569 8.23c0.213 2.97 1.542 5.748 3.718 7.779s5.041 3.163 8.019 3.169c2.835 0 5.576-1.021 7.72-2.877s3.547-4.422 3.952-7.228h-13.356z"></path>
</symbol>
</defs>
</svg>
